<svg xmlns="http://www.w3.org/2000/svg" xmlns:xlink="http://www.w3.org/1999/xlink" style="margin:auto;background:0 0;display:block" width="200" height="200" preserveAspectRatio="xMidYMid" viewBox="0 0 100 100"><g transform="rotate(0 50 50)"><rect width="5" height="15" x="47.5" y="12.5" fill="#ee6123" rx="1.5" ry="1.5"><animate attributeName="opacity" begin="-0.9333333333333333s" dur="1s" keyTimes="0;1" repeatCount="indefinite" values="1;0"/></rect></g><g transform="rotate(24 50 50)"><rect width="5" height="15" x="47.5" y="12.5" fill="#ee6123" rx="1.5" ry="1.5"><animate attributeName="opacity" begin="-0.8666666666666667s" dur="1s" keyTimes="0;1" repeatCount="indefinite" values="1;0"/></rect></g><g transform="rotate(48 50 50)"><rect width="5" height="15" x="47.5" y="12.5" fill="#ee6123" rx="1.5" ry="1.5"><animate attributeName="opacity" begin="-0.8s" dur="1s" keyTimes="0;1" repeatCount="indefinite" values="1;0"/></rect></g><g transform="rotate(72 50 50)"><rect width="5" height="15" x="47.5" y="12.5" fill="#ee6123" rx="1.5" ry="1.5"><animate attributeName="opacity" begin="-0.7333333333333333s" dur="1s" keyTimes="0;1" repeatCount="indefinite" values="1;0"/></rect></g><g transform="rotate(96 50 50)"><rect width="5" height="15" x="47.5" y="12.5" fill="#ee6123" rx="1.5" ry="1.5"><animate attributeName="opacity" begin="-0.6666666666666666s" dur="1s" keyTimes="0;1" repeatCount="indefinite" values="1;0"/></rect></g><g transform="rotate(120 50 50)"><rect width="5" height="15" x="47.5" y="12.5" fill="#ee6123" rx="1.5" ry="1.5"><animate attributeName="opacity" begin="-0.6s" dur="1s" keyTimes="0;1" repeatCount="indefinite" values="1;0"/></rect></g><g transform="rotate(144 50 50)"><rect width="5" height="15" x="47.5" y="12.5" fill="#ee6123" rx="1.5" ry="1.5"><animate attributeName="opacity" begin="-0.5333333333333333s" dur="1s" keyTimes="0;1" repeatCount="indefinite" values="1;0"/></rect></g><g transform="rotate(168 50 50)"><rect width="5" height="15" x="47.5" y="12.5" fill="#ee6123" rx="1.5" ry="1.5"><animate attributeName="opacity" begin="-0.4666666666666667s" dur="1s" keyTimes="0;1" repeatCount="indefinite" values="1;0"/></rect></g><g transform="rotate(192 50 50)"><rect width="5" height="15" x="47.5" y="12.5" fill="#ee6123" rx="1.5" ry="1.5"><animate attributeName="opacity" begin="-0.4s" dur="1s" keyTimes="0;1" repeatCount="indefinite" values="1;0"/></rect></g><g transform="rotate(216 50 50)"><rect width="5" height="15" x="47.5" y="12.5" fill="#ee6123" rx="1.5" ry="1.5"><animate attributeName="opacity" begin="-0.3333333333333333s" dur="1s" keyTimes="0;1" repeatCount="indefinite" values="1;0"/></rect></g><g transform="rotate(240 50 50)"><rect width="5" height="15" x="47.5" y="12.5" fill="#ee6123" rx="1.5" ry="1.5"><animate attributeName="opacity" begin="-0.26666666666666666s" dur="1s" keyTimes="0;1" repeatCount="indefinite" values="1;0"/></rect></g><g transform="rotate(264 50 50)"><rect width="5" height="15" x="47.5" y="12.5" fill="#ee6123" rx="1.5" ry="1.5"><animate attributeName="opacity" begin="-0.2s" dur="1s" keyTimes="0;1" repeatCount="indefinite" values="1;0"/></rect></g><g transform="rotate(288 50 50)"><rect width="5" height="15" x="47.5" y="12.5" fill="#ee6123" rx="1.5" ry="1.5"><animate attributeName="opacity" begin="-0.13333333333333333s" dur="1s" keyTimes="0;1" repeatCount="indefinite" values="1;0"/></rect></g><g transform="rotate(312 50 50)"><rect width="5" height="15" x="47.5" y="12.5" fill="#ee6123" rx="1.5" ry="1.5"><animate attributeName="opacity" begin="-0.06666666666666667s" dur="1s" keyTimes="0;1" repeatCount="indefinite" values="1;0"/></rect></g><g transform="rotate(336 50 50)"><rect width="5" height="15" x="47.5" y="12.5" fill="#ee6123" rx="1.5" ry="1.5"><animate attributeName="opacity" begin="0s" dur="1s" keyTimes="0;1" repeatCount="indefinite" values="1;0"/></rect></g></svg>